# xmcd CD database file
#
# Track frame offsets:
#	150
#	17967
#	36301
#	52002
#	67696
#	83315
#	102943
#	118357
#	135257
#	153826
#	173591
#	191374
#	208269
#	223666
#
# Disc length: 3224 seconds
#
# Revision: 2
# Processed by: cddbd v1.4PL0 Copyright (c) Steve Scherf et al.
# Submitted via: CDex 1.40Release
#
DISCID=b80c960e
DTITLE=Bulanova Tanya - Krasnoe na belom
DYEAR=2002
DGENRE=Pop
TTITLE0=Sluchainyi prohozhii
TTITLE1=Odinokaya ctrannica
TTITLE2=Pazovi
TTITLE3=Prostoi cyuzhet
TTITLE4=Mehanicheskoe serdce
TTITLE5=Minuty
TTITLE6=Vse tak nado
TTITLE7=Mne vse ravno
TTITLE8=Belyi procherk
TTITLE9=Lyudi, kak pticy
TTITLE10=Sluchainyi prahozhii (karaoke)
TTITLE11=Mne vse ravno (karaoke)
TTITLE12=Vse tak nado (karaoke)
TTITLE13=Odinokaya strannica (karaoke)
EXTD=YEAR: 2002 ID3G: 13
EXTT0=
EXTT1=
EXTT2=
EXTT3=
EXTT4=
EXTT5=
EXTT6=
EXTT7=
EXTT8=
EXTT9=
EXTT10=
EXTT11=
EXTT12=
EXTT13=
PLAYORDER=
